<?xml version="1.0" encoding="UTF-8" standalone="no"?>
<!-- Created with Inkscape (http://www.inkscape.org/) -->

<svg
   xmlns:dc="http://purl.org/dc/elements/1.1/"
   xmlns:cc="http://creativecommons.org/ns#"
   xmlns:rdf="http://www.w3.org/1999/02/22-rdf-syntax-ns#"
   xmlns:svg="http://www.w3.org/2000/svg"
   xmlns="http://www.w3.org/2000/svg"
   xmlns:sodipodi="http://sodipodi.sourceforge.net/DTD/sodipodi-0.dtd"
   xmlns:inkscape="http://www.inkscape.org/namespaces/inkscape"
   width="100"
   height="85"
   id="svg2"
   sodipodi:version="0.32"
   inkscape:version="0.48.4 r9939"
   version="1.0"
   sodipodi:docname="ESD_(Susceptible).svg"
   inkscape:output_extension="org.inkscape.output.svg.inkscape">
  <defs
     id="defs4" />
  <sodipodi:namedview
     id="base"
     pagecolor="#ffffff"
     bordercolor="#666666"
     borderopacity="1.0"
     gridtolerance="10000"
     guidetolerance="10"
     objecttolerance="10"
     inkscape:pageopacity="0.0"
     inkscape:pageshadow="2"
     inkscape:zoom="5.6568544"
     inkscape:cx="49.533277"
     inkscape:cy="31.257135"
     inkscape:document-units="px"
     inkscape:current-layer="layer1"
     width="325px"
     height="300px"
     showgrid="true"
     inkscape:grid-points="true"
     inkscape:window-width="1386"
     inkscape:window-height="820"
     inkscape:window-x="50"
     inkscape:window-y="28"
     inkscape:window-maximized="0"
     inkscape:object-paths="true"
     inkscape:snap-grids="false">
    <inkscape:grid
       type="axonomgrid"
       id="grid3037"
       units="mm"
       empspacing="5"
       visible="true"
       enabled="true"
       snapvisiblegridlinesonly="true"
       gridanglex="30"
       gridanglez="60"
       spacingy="5mm"
       originy="0mm"
       originx="6mm" />
  </sodipodi:namedview>
  <metadata
     id="metadata7">
    <rdf:RDF>
      <cc:Work
         rdf:about="">
        <dc:format>image/svg+xml</dc:format>
        <dc:type
           rdf:resource="http://purl.org/dc/dcmitype/StillImage" />
        <dc:title></dc:title>
      </cc:Work>
    </rdf:RDF>
  </metadata>
  <g
     inkscape:label="Layer 1"
     inkscape:groupmode="layer"
     id="layer1"
     transform="translate(0,-215)">
    <path
       style="fill:none;stroke:#000000;stroke-width:2"
       d="m 49.298335,217.8 -0.162256,0.28373 -0.121687,0.20266 c -6.825285,11.81584 -13.665733,23.64182 -20.505069,35.47585 l 6.327974,3.65803 c 0.682742,-0.89172 1.41374,-1.73951 2.231016,-2.513 5.04654,-3.0687 11.28104,-2.25559 16.823891,-3.72897 4.207421,-0.86589 8.35412,-2.35941 11.85481,-4.874 C 60.280956,236.79346 54.785581,227.29886 49.298339,217.8 z m 23.841451,41.27195 c -4.328068,4.26368 -8.253553,8.99582 -12.666087,13.13245 l 30.382386,17.53019 C 84.959997,279.50753 79.045892,269.29325 73.139786,259.07195 z m -48.68686,1.7125 c -6.969789,12.06212 -13.938744,24.13321 -20.8904253,36.19528 l 83.6326883,0 -33.52609,-19.34401 c -0.139095,0.0907 -0.2753,0.18459 -0.415781,0.27359 -2.552198,2.05974 -4.510491,4.78165 -6.784317,7.09315 -0.416307,-0.85796 -1.172444,-1.37563 -2.028198,-1.59089 -0.08686,0.0176 -0.175398,0.0415 -0.273806,0.0507 -1.744249,0.16212 -4.583724,5.10706 -4.583724,5.10706 0,0 -0.709869,-1.54022 -0.263666,-4.60041 0,0 0.02014,-0.0107 0.02028,-0.0107 0.258412,-3.94013 4.023712,-6.27798 6.358397,-9.08935 0.36173,-0.36062 0.679926,-0.82157 0.892407,-1.30717 l -10.506059,-6.06971 c -0.01704,0.0243 -0.03414,0.0455 -0.05071,0.0709 -1.7599,1.98808 -3.895639,4.36147 -3.316101,7.23502 0.203118,2.27957 -0.241479,4.70963 0.172396,6.90061 1.366765,1.34781 2.423631,3.04733 2.109325,5.06652 -0.07138,1.16647 -0.637029,3.18809 -1.531288,3.53645 -0.825298,-1.96404 -0.542162,-5.22294 -3.052436,-5.91771 -0.81304,0.0598 -2.043834,0.39147 -2.129606,-0.78025 -1.345032,-3.54255 -1.992177,-7.35947 -2.636656,-11.0653 0.502933,-2.33415 2.620114,-3.92901 3.529062,-6.12037 0.452862,-0.70045 0.887516,-1.42287 1.318328,-2.14821 z"
       id="path2280"
       inkscape:connector-curvature="0"
       sodipodi:nodetypes="ccccccccccccccccccccsccccccccccccccccc" />
    <path
       style="fill:none;stroke:#000000;stroke-width:2;stroke-linecap:butt;stroke-linejoin:miter;stroke-opacity:1"
       d="m 33.437837,290.23111 c -1.663121,0.89172 -3.691319,-0.56744 -5.070493,-6.12036"
       id="path3016"
       inkscape:connector-curvature="0" />
    <path
       style="fill:none;stroke:#000000;stroke-width:2;stroke-linecap:butt;stroke-linejoin:miter;stroke-opacity:1"
       d="m 39.532402,288.57812 c 0.774443,0.88848 -0.602341,5.78944 7.027345,-3.58258"
       id="path3025"
       inkscape:connector-curvature="0" />
    <path
       style="fill:none;stroke:#000000;stroke-width:2;stroke-linecap:butt;stroke-linejoin:miter;stroke-opacity:1"
       d="m 37.180395,269.5188 c -1.376785,2.17821 -3.327232,4.01249 -2.35201,8.88479 0.975225,4.87231 0.975225,3.26731 0.975225,3.26731 0,0 1.14732,-1.77695 0.975221,-3.84052 -0.172097,-2.06356 0.803124,-6.30534 1.032589,-6.53462 0.229466,-0.22929 -0.631025,-1.77696 -0.631025,-1.77696 z"
       id="path3033"
       inkscape:connector-curvature="0" />
    <path
       style="fill:none;stroke:#000000;stroke-width:2;stroke-linecap:butt;stroke-linejoin:miter;stroke-opacity:1"
       d="m 40.335529,271.98361 c -1.319421,2.23553 -1.319421,5.9041 -1.319421,5.9041 0,0 1.950447,-1.20375 2.179913,-2.40749 0.229461,-1.20376 -0.860492,-3.49661 -0.860492,-3.49661 z"
       id="path3035"
       inkscape:connector-curvature="0" />
    <path
       style="fill:none;stroke:#000000;stroke-width:2;stroke-linecap:butt;stroke-linejoin:miter;stroke-opacity:1"
       d="M 9.3559054,286.93204 26.795492,296.97973"
       id="path3039"
       inkscape:connector-curvature="0" />
    <path
       style="fill:none;stroke:#000000;stroke-width:2;stroke-linecap:butt;stroke-linejoin:miter;stroke-opacity:1"
       d="m 6.8730975,291.23696 10.0146545,5.74277"
       id="path3041"
       inkscape:connector-curvature="0" />
    <path
       style="fill:none;stroke:#000000;stroke-width:2;stroke-linecap:butt;stroke-linejoin:miter;stroke-opacity:1"
       d="m 11.837738,282.63035 24.764086,14.34938"
       id="path3043"
       inkscape:connector-curvature="0" />
    <path
       style="fill:none;stroke:#000000;stroke-width:2;stroke-linecap:butt;stroke-linejoin:miter;stroke-opacity:1"
       d="m 14.329412,278.31301 14.905655,8.57793"
       id="path3045"
       inkscape:connector-curvature="0" />
    <path
       style="fill:none;stroke:#000000;stroke-width:2;stroke-linecap:butt;stroke-linejoin:miter;stroke-opacity:1"
       d="m 34.107865,289.71817 12.358041,7.12934"
       id="path3047"
       inkscape:connector-curvature="0"
       sodipodi:nodetypes="cc" />
    <path
       style="fill:none;stroke:#000000;stroke-width:2;stroke-linecap:butt;stroke-linejoin:miter;stroke-opacity:1"
       d="M 56.443946,296.88667 42.932803,289.0921"
       id="path3049"
       inkscape:connector-curvature="0"
       sodipodi:nodetypes="cc" />
    <path
       style="fill:none;stroke:#000000;stroke-width:2;stroke-linecap:butt;stroke-linejoin:miter;stroke-opacity:1"
       d="m 39.23848,286.92774 -4.516966,-2.60583 M 27.1538,280.0064 16.800099,274.03335"
       id="path3051"
       inkscape:connector-curvature="0" />
    <path
       style="fill:none;stroke:#000000;stroke-width:2;stroke-linecap:butt;stroke-linejoin:miter;stroke-opacity:1"
       d="m 25.805518,273.43514 -6.4959,-3.74748"
       id="path3053"
       inkscape:connector-curvature="0" />
    <path
       style="fill:none;stroke:#000000;stroke-width:2;stroke-linecap:butt;stroke-linejoin:miter;stroke-opacity:1"
       d="m 27.718322,268.80983 -5.926706,-3.41911"
       id="path3055"
       inkscape:connector-curvature="0" />
    <path
       style="fill:none;stroke:#000000;stroke-width:2;stroke-linecap:butt;stroke-linejoin:miter;stroke-opacity:1"
       d="m 39.93727,281.63323 -3.327356,-1.91955"
       id="path3057"
       inkscape:connector-curvature="0" />
    <path
       style="fill:none;stroke:#000000;stroke-width:2;stroke-linecap:butt;stroke-linejoin:miter;stroke-opacity:1"
       d="m 43.02733,277.64193 -2.252337,-1.29938"
       id="path3059"
       inkscape:connector-curvature="0" />
    <path
       style="fill:none;stroke:#000000;stroke-width:2;stroke-linecap:butt;stroke-linejoin:miter;stroke-opacity:1"
       d="m 39.225363,275.47217 -2.145541,-1.23775"
       id="path3061"
       inkscape:connector-curvature="0" />
    <path
       style="fill:none;stroke:#000000;stroke-width:2;stroke-linecap:butt;stroke-linejoin:miter;stroke-opacity:1"
       d="m 35.084573,273.04694 -2.069165,-1.19369"
       id="path3063"
       inkscape:connector-curvature="0" />
    <path
       style="fill:none;stroke:#000000;stroke-width:2;stroke-linecap:butt;stroke-linejoin:miter;stroke-opacity:1"
       d="m 34.877419,278.64718 -2.125372,-1.22613"
       id="path3065"
       inkscape:connector-curvature="0" />
    <path
       style="fill:none;stroke:#000000;stroke-width:2;stroke-linecap:butt;stroke-linejoin:miter;stroke-opacity:1"
       d="m 46.338989,285.26579 20.305,11.71394"
       id="path3067"
       inkscape:connector-curvature="0" />
    <path
       style="fill:none;stroke:#000000;stroke-width:2;stroke-linecap:butt;stroke-linejoin:miter;stroke-opacity:1"
       d="M 76.516731,296.97973 49.665227,281.46441"
       id="path3069"
       inkscape:connector-curvature="0" />
    <path
       style="fill:none;stroke:#000000;stroke-width:2;stroke-linecap:butt;stroke-linejoin:miter;stroke-opacity:1"
       d="m 30.983644,249.48132 7.8418,4.52393"
       id="path3071"
       inkscape:connector-curvature="0" />
    <path
       style="fill:none;stroke:#000000;stroke-width:2;stroke-linecap:butt;stroke-linejoin:miter;stroke-opacity:1"
       d="m 33.454825,245.20646 12.423043,7.16684"
       id="path3073"
       inkscape:connector-curvature="0" />
    <path
       style="fill:none;stroke:#000000;stroke-width:2;stroke-linecap:butt;stroke-linejoin:miter;stroke-opacity:1"
       d="M 53.849806,251.18952 35.961818,240.86995"
       id="path3075"
       inkscape:connector-curvature="0" />
    <path
       style="fill:none;stroke:#000000;stroke-width:2;stroke-linecap:butt;stroke-linejoin:miter;stroke-opacity:1"
       d="m 38.471847,236.52825 21.982215,12.68152"
       id="path3077"
       inkscape:connector-curvature="0" />
    <path
       style="fill:none;stroke:#000000;stroke-width:2;stroke-linecap:butt;stroke-linejoin:miter;stroke-opacity:1"
       d="M 65.547312,246.44614 40.943703,232.25235"
       id="path3079"
       inkscape:connector-curvature="0" />
    <path
       style="fill:none;stroke:#000000;stroke-width:2;stroke-linecap:butt;stroke-linejoin:miter;stroke-opacity:1"
       d="M 60.999683,238.05883 43.442158,227.92991"
       id="path3081"
       inkscape:connector-curvature="0" />
    <path
       style="fill:none;stroke:#000000;stroke-width:2;stroke-linecap:butt;stroke-linejoin:miter;stroke-opacity:1"
       d="M 45.926164,223.63167 56.039422,229.466"
       id="path3083"
       inkscape:connector-curvature="0" />
    <path
       style="fill:none;stroke:#000000;stroke-width:2;stroke-linecap:butt;stroke-linejoin:miter;stroke-opacity:1"
       d="m 64.107295,268.5899 21.805824,12.57975"
       id="path3085"
       inkscape:connector-curvature="0" />
    <path
       style="fill:none;stroke:#000000;stroke-width:2;stroke-linecap:butt;stroke-linejoin:miter;stroke-opacity:1"
       d="M 80.909402,272.51174 67.619029,264.84452"
       id="path3087"
       inkscape:connector-curvature="0" />
    <path
       style="fill:none;stroke:#000000;stroke-width:2;stroke-linecap:butt;stroke-linejoin:miter;stroke-opacity:1"
       d="m 71.07664,261.1636 4.908875,2.83192"
       id="path3089"
       inkscape:connector-curvature="0" />
  </g>
</svg>
