<?xml version="1.0" encoding="UTF-8" standalone="no"?>
<!-- Created with Inkscape (http://www.inkscape.org/) -->

<svg
   xmlns:dc="http://purl.org/dc/elements/1.1/"
   xmlns:cc="http://creativecommons.org/ns#"
   xmlns:rdf="http://www.w3.org/1999/02/22-rdf-syntax-ns#"
   xmlns:svg="http://www.w3.org/2000/svg"
   xmlns="http://www.w3.org/2000/svg"
   xmlns:sodipodi="http://sodipodi.sourceforge.net/DTD/sodipodi-0.dtd"
   xmlns:inkscape="http://www.inkscape.org/namespaces/inkscape"
   id="svg2"
   version="1.1"
   inkscape:version="0.48.4 r9939"
   width="500"
   height="300"
   xml:space="preserve"
   sodipodi:docname="RU-Fun-Saf.eps"><metadata
     id="metadata8"><rdf:RDF><cc:Work
         rdf:about=""><dc:format>image/svg+xml</dc:format><dc:type
           rdf:resource="http://purl.org/dc/dcmitype/StillImage" /><dc:title></dc:title></cc:Work></rdf:RDF></metadata><defs
     id="defs6" /><sodipodi:namedview
     pagecolor="#ffffff"
     bordercolor="#666666"
     borderopacity="1"
     objecttolerance="10"
     gridtolerance="10"
     guidetolerance="10"
     inkscape:pageopacity="0"
     inkscape:pageshadow="2"
     inkscape:window-width="1598"
     inkscape:window-height="822"
     id="namedview4"
     showgrid="false"
     inkscape:zoom="1.4160885"
     inkscape:cx="341.86799"
     inkscape:cy="65.083503"
     inkscape:window-x="0"
     inkscape:window-y="28"
     inkscape:window-maximized="1"
     inkscape:current-layer="g10" /><g
     id="g10"
     inkscape:groupmode="layer"
     inkscape:label="ink_ext_XXXXXX"
     transform="matrix(1.25,0,0,-1.25,0,300)"><path
       sodipodi:nodetypes="sccccccsscccccccccsccccc"
       inkscape:connector-curvature="0"
       id="path48"
       style="fill:none;stroke:#231f20;stroke-width:16;stroke-miterlimit:4;stroke-dasharray:none"
       d="m 351.00571,14.691473 -138.87899,0 -29.08617,78.503779 -12.0826,0 -16.46467,-78.503779 -64.766859,0 16.464979,78.093364 -28.064937,0 c -9.600845,0 -18.691259,5.382398 -21.584331,13.449793 l -30.858815,86.05048 c -5.03489,14.34172 3.473983,31.75566 21.768374,31.75566 l 154.251689,-0.0142 52.14521,-143.983678 37.87866,0 -51.05324,143.983678 65.31978,0 c 0,0 45.56502,-119.0517 64.76671,-180.97736 3.83845,-12.584597 -5.6458,-28.359621 -19.69805,-28.357777 -0.0189,0 -0.0394,0 -0.0567,0 z M 95.753539,176.75414 l 13.174731,-35.05408 57.09454,0 -13.17458,35.05408 -57.094691,0" /></g></svg>